<?xml version="1.0" standalone="no"?><!DOCTYPE svg PUBLIC "-//W3C//DTD SVG 1.1//EN" "http://www.w3.org/Graphics/SVG/1.1/DTD/svg11.dtd"><svg t="1569553835502" class="icon" viewBox="0 0 1024 1024" version="1.1" xmlns="http://www.w3.org/2000/svg" p-id="1544" width="32" height="32" xmlns:xlink="http://www.w3.org/1999/xlink"><defs><style type="text/css"></style></defs><path d="M160 224 160 352 864 352 864 224Z" p-id="1545" fill="#8a8a8a"></path><path d="M704 192 704 128l-32 0 0 64L352 192 352 128l-32 0 0 64L128 192l0 704 768 0L896 192 704 192zM864 864 160 864 160 384l704 0L864 864zM864 352 160 352l0-128 160 0 0 64 32 0 0-64 320 0 0 64 32 0 0-64 160 0L864 352z" p-id="1546" fill="#8a8a8a"></path></svg>